<svg xmlns="http://www.w3.org/2000/svg" width="121.922" height="35.709" viewBox="0 0 121.922 35.709"><defs><style>.a{fill:none;stroke:#fff;}.b{fill:#fff;}</style></defs><g transform="translate(-0.312 -0.312)"><g transform="translate(0 0)"><path class="a" d="M126.422,36.724a3.486,3.486,0,0,1-3.486,3.486H8.986A3.486,3.486,0,0,1,5.5,36.724V8.986A3.486,3.486,0,0,1,8.986,5.5h113.95a3.486,3.486,0,0,1,3.486,3.486V36.724Z" transform="translate(-4.688 -4.688)"/><path class="b" d="M94.451,82.89a5.228,5.228,0,0,1,2.511-4.416,5.384,5.384,0,0,0-4.254-2.289c-1.787-.192-3.515,1.063-4.431,1.063s-2.334-1.049-3.84-1.019a5.616,5.616,0,0,0-4.756,2.91c-2.053,3.56-.517,8.8,1.447,11.683.99,1.418,2.142,2.984,3.648,2.924S86.8,92.8,88.587,92.8s2.289.945,3.825.9,2.585-1.418,3.53-2.836a11.638,11.638,0,0,0,1.61-3.294A5.1,5.1,0,0,1,94.451,82.89Z" transform="translate(-67.082 -64.915)"/><path class="b" d="M145.552,42.007a5.107,5.107,0,0,0,1.182-3.707,5.23,5.23,0,0,0-3.412,1.772,4.677,4.677,0,0,0-1.211,3.574A4.45,4.45,0,0,0,145.552,42.007Z" transform="translate(-121.093 -32.643)"/><g transform="translate(38.535 16.38)"><path class="b" d="M271.106,123.982h-2.068l-1.123-3.545h-3.929l-1.078,3.545H260.9l3.884-12.082h2.408Zm-3.53-5.037-1.019-3.161q-.162-.487-.605-2.275h-.03q-.177.768-.576,2.275l-1,3.161Z" transform="translate(-260.9 -111.752)"/><path class="b" d="M349.189,137.93a4.919,4.919,0,0,1-1.211,3.515,3.545,3.545,0,0,1-2.688,1.152,2.676,2.676,0,0,1-2.481-1.241v4.579h-1.935v-9.394q0-1.4-.074-2.865h1.7l.1,1.388h.03a3.431,3.431,0,0,1,5.509-.34A4.724,4.724,0,0,1,349.189,137.93ZM347.21,138a3.587,3.587,0,0,0-.576-2.1,1.979,1.979,0,0,0-1.684-.857,2.009,2.009,0,0,0-1.3.473,2.2,2.2,0,0,0-.768,1.241,2.525,2.525,0,0,0-.089.591V138.8a2.334,2.334,0,0,0,.576,1.61,1.935,1.935,0,0,0,1.521.65,1.979,1.979,0,0,0,1.7-.842,3.585,3.585,0,0,0,.635-2.215Z" transform="translate(-328.999 -130.161)"/><path class="b" d="M417.089,137.93a4.919,4.919,0,0,1-1.211,3.515,3.545,3.545,0,0,1-2.688,1.152,2.676,2.676,0,0,1-2.481-1.241v4.579h-1.935v-9.394q0-1.4-.074-2.865h1.7l.1,1.388h.029a3.431,3.431,0,0,1,5.509-.34A4.724,4.724,0,0,1,417.089,137.93ZM415.11,138a3.586,3.586,0,0,0-.576-2.1,1.979,1.979,0,0,0-1.684-.857,2.023,2.023,0,0,0-1.3.473,2.2,2.2,0,0,0-.768,1.241,2.586,2.586,0,0,0-.089.591V138.8a2.334,2.334,0,0,0,.576,1.61,1.935,1.935,0,0,0,1.521.65,1.979,1.979,0,0,0,1.713-.842A3.711,3.711,0,0,0,415.11,138Z" transform="translate(-386.87 -130.161)"/><path class="b" d="M498.1,119.747a3.2,3.2,0,0,1-1.078,2.511,5.22,5.22,0,0,1-3.294,1.063,5.757,5.757,0,0,1-3.131-.753l.443-1.61a5.391,5.391,0,0,0,2.792.753,2.643,2.643,0,0,0,1.7-.487,1.61,1.61,0,0,0,.605-1.315,1.683,1.683,0,0,0-.5-1.241,4.515,4.515,0,0,0-1.669-.931q-3.176-1.182-3.176-3.456a3.057,3.057,0,0,1,1.122-2.437,4.456,4.456,0,0,1,2.969-.945,5.19,5.19,0,0,1,2.747.576l-.473,1.551a4.8,4.8,0,0,0-2.319-.561,2.3,2.3,0,0,0-1.6.5,1.433,1.433,0,0,0-.487,1.093,1.477,1.477,0,0,0,.561,1.182,6.392,6.392,0,0,0,1.758.93,6,6,0,0,1,2.289,1.462A3.057,3.057,0,0,1,498.1,119.747Z" transform="translate(-456.673 -110.9)"/><path class="b" d="M554.2,123.633h-2.127v4.224q0,1.61,1.123,1.61a3.4,3.4,0,0,0,.857-.089l.059,1.477a4.387,4.387,0,0,1-1.507.222,2.3,2.3,0,0,1-1.787-.694,3.5,3.5,0,0,1-.65-2.348v-4.416H548.9v-1.447h1.27v-1.6l1.905-.576v2.171h2.142Z" transform="translate(-506.362 -118.656)"/><path class="b" d="M600.637,137.96a4.747,4.747,0,0,1-1.152,3.294,4.2,4.2,0,0,1-3.19,1.329,3.9,3.9,0,0,1-3.057-1.27,4.625,4.625,0,0,1-1.137-3.205,4.75,4.75,0,0,1,1.182-3.323,4.458,4.458,0,0,1,6.248-.015A4.327,4.327,0,0,1,600.637,137.96Zm-2.009.044a3.9,3.9,0,0,0-.517-2.053,1.914,1.914,0,0,0-1.743-1.034,1.949,1.949,0,0,0-1.772,1.034,3.973,3.973,0,0,0-.517,2.1,3.884,3.884,0,0,0,.517,2.053,1.992,1.992,0,0,0,3.5-.015A3.914,3.914,0,0,0,598.628,138Z" transform="translate(-543.182 -130.161)"/><path class="b" d="M665.567,135.291a3.365,3.365,0,0,0-.605-.059,1.832,1.832,0,0,0-1.58.768,2.91,2.91,0,0,0-.487,1.728v4.579h-1.935v-5.967q0-1.507-.059-2.747h1.684l.074,1.669h.059a2.983,2.983,0,0,1,.975-1.388,2.349,2.349,0,0,1,1.4-.473l.487.03v1.846Z" transform="translate(-601.82 -130.077)"/><path class="b" d="M706.453,137.365a4.535,4.535,0,0,1-.074.871H700.56a2.543,2.543,0,0,0,.842,1.979,2.508,2.508,0,0,0,1.905.606,6.425,6.425,0,0,0,2.349-.414l.31,1.344a7.267,7.267,0,0,1-2.924.532,4.251,4.251,0,0,1-3.19-1.2,4.345,4.345,0,0,1-1.152-3.205,5,5,0,0,1,1.078-3.279,3.961,3.961,0,0,1,3.043-1.4,3.229,3.229,0,0,1,2.851,1.4A4.9,4.9,0,0,1,706.453,137.365Zm-1.846-.5a2.614,2.614,0,0,0-.369-1.492,1.688,1.688,0,0,0-1.536-.812,1.831,1.831,0,0,0-1.536.783,2.894,2.894,0,0,0-.576,1.507Z" transform="translate(-634.036 -129.906)"/></g><g transform="translate(39.259 5.952)"><path class="b" d="M270.807,48.338h-1.019l-.561-1.743h-1.905l-.532,1.743h-.99l1.905-5.938h1.182Zm-1.728-2.481-.5-1.551c-.059-.162-.148-.532-.3-1.123h-.015c-.059.251-.148.62-.281,1.123l-.487,1.551Z" transform="translate(-265.8 -42.09)"/><path class="b" d="M308.321,53.6,306.7,57.883h-.931L304.2,53.6h1.019l.738,2.26c.118.384.222.738.31,1.078h.03c.074-.31.177-.665.31-1.078l.724-2.26Z" transform="translate(-298.528 -51.636)"/><path class="b" d="M340.073,57.532,340,57.045h-.03a1.462,1.462,0,0,1-1.255.591A1.242,1.242,0,0,1,337.4,56.38c0-1.063.916-1.61,2.5-1.61V54.7q0-.842-.886-.842a1.994,1.994,0,0,0-1.122.325l-.192-.62a2.747,2.747,0,0,1,1.477-.369q1.684,0,1.684,1.772v1.551a6.366,6.366,0,0,0,.059,1.019Zm-.133-2.127c-1.063,0-1.58.251-1.58.857s.281.665.65.665a.916.916,0,0,0,.931-.871Z" transform="translate(-326.825 -51.285)"/><path class="b" d="M372.046,42.156a.576.576,0,1,1,.606-.576.561.561,0,0,1-.606.576Zm.487,4.992h-.945V42.865h.945Z" transform="translate(-355.888 -40.901)"/><path class="b" d="M390.96,46.548H390V40.3h.945Z" transform="translate(-371.656 -40.3)"/><path class="b" d="M408.473,57.532l-.074-.487h-.03a1.462,1.462,0,0,1-1.255.591A1.242,1.242,0,0,1,405.8,56.38c0-1.063.916-1.61,2.5-1.61V54.7q0-.842-.886-.842a1.994,1.994,0,0,0-1.122.325l-.192-.62a2.747,2.747,0,0,1,1.477-.369q1.684,0,1.684,1.772v1.551a6.6,6.6,0,0,0,.059,1.019Zm-.133-2.127c-1.063,0-1.58.251-1.58.857s.281.665.65.665a.916.916,0,0,0,.931-.871Z" transform="translate(-385.122 -51.285)"/><path class="b" d="M442.53,46.651a1.447,1.447,0,0,1-1.344-.753h-.015l-.059.665H440.3c.03-.34.03-.738.03-1.152V40.3h.96v2.585h.015a1.465,1.465,0,0,1,1.359-.709c1.034,0,1.758.886,1.758,2.171A2.1,2.1,0,0,1,442.53,46.651Zm-.207-3.722a1.093,1.093,0,0,0-1.049,1.137v.753a1.049,1.049,0,0,0,1.034,1.078c.709,0,1.137-.576,1.137-1.507S443,42.929,442.323,42.929Z" transform="translate(-414.526 -40.3)"/><path class="b" d="M478.745,46.548H477.8V40.3h.945Z" transform="translate(-446.488 -40.3)"/><path class="b" d="M497.466,55.467h-2.851a1.229,1.229,0,0,0,1.344,1.27,3.22,3.22,0,0,0,1.152-.207l.148.665a3.574,3.574,0,0,1-1.433.266A1.979,1.979,0,0,1,493.7,55.3a2.094,2.094,0,0,1,2.023-2.3c1.211,0,1.787.812,1.787,2.038A1.783,1.783,0,0,1,497.466,55.467Zm-.871-.679c0-.665-.34-1.123-.945-1.123s-.975.473-1.034,1.123Z" transform="translate(-460.039 -51.124)"/><path class="b" d="M546.368,57.475a2.037,2.037,0,0,1-2.068-2.2A2.123,2.123,0,0,1,546.442,53a1.984,1.984,0,0,1,2.068,2.2A2.115,2.115,0,0,1,546.368,57.475Zm.03-3.766c-.694,0-1.123.65-1.123,1.536s.443,1.521,1.123,1.521,1.108-.694,1.108-1.551-.428-1.521-1.108-1.521Z" transform="translate(-503.166 -51.124)"/><path class="b" d="M585.837,57.369h-.945V54.9c0-.753-.3-1.137-.857-1.137a1,1,0,0,0-.96,1.049v2.555h-.945V54.312c0-.384-.015-.783-.03-1.226h.842l.044.665h.03A1.536,1.536,0,0,1,584.375,53c.9,0,1.492.694,1.492,1.8v2.57Z" transform="translate(-535.383 -51.122)"/><path class="b" d="M634.685,48.172h-1.049v2.083q0,.8.561.8a1.89,1.89,0,0,0,.428-.044l.03.724a2.127,2.127,0,0,1-.738.1c-.753,0-1.2-.414-1.2-1.492V48.172h-.62v-.709h.62v-.783l.93-.281v1.063H634.7Z" transform="translate(-577.998 -45.499)"/><path class="b" d="M662.222,46.548h-.96V44.111c0-.768-.3-1.152-.857-1.152a.9.9,0,0,0-.945,1.019v2.57h-.96V40.3h.96v2.57h.015a1.447,1.447,0,0,1,1.285-.694c.9,0,1.462.709,1.462,1.831Z" transform="translate(-600.498 -40.3)"/><path class="b" d="M694.866,55.467h-2.851a1.229,1.229,0,0,0,1.344,1.27,3.2,3.2,0,0,0,1.152-.207l.148.665a3.575,3.575,0,0,1-1.433.266A1.979,1.979,0,0,1,691.1,55.3a2.094,2.094,0,0,1,2.024-2.3c1.211,0,1.787.812,1.787,2.038A1.848,1.848,0,0,1,694.866,55.467Zm-.871-.679c0-.665-.34-1.123-.945-1.123s-.975.473-1.034,1.123Z" transform="translate(-628.283 -51.124)"/></g></g></g></svg>