<svg xmlns="http://www.w3.org/2000/svg" xmlns:xlink="http://www.w3.org/1999/xlink" width="121.922" height="35.709" viewBox="0 0 121.922 35.709"><defs><style>.a,.b{fill:#fff;}.a,.g{stroke:#fff;}.a{stroke-miterlimit:10;stroke-width:0.16px;}.c{fill:url(#a);}.d{fill:url(#b);}.e{fill:url(#c);}.f{fill:url(#d);}.g{fill:none;}</style><linearGradient id="a" x1="1.063" y1="0.108" x2="-0.231" y2="0.784" gradientUnits="objectBoundingBox"><stop offset="0" stop-color="#00a0ff"/><stop offset="0.01" stop-color="#00a1ff"/><stop offset="0.26" stop-color="#00beff"/><stop offset="0.51" stop-color="#00d2ff"/><stop offset="0.76" stop-color="#00dfff"/><stop offset="1" stop-color="#00e3ff"/></linearGradient><linearGradient id="b" x1="1.26" y1="0.684" x2="-1.112" y2="0.684" gradientUnits="objectBoundingBox"><stop offset="0" stop-color="#ffe000"/><stop offset="0.41" stop-color="#ffbd00"/><stop offset="0.78" stop-color="orange"/><stop offset="1" stop-color="#ff9c00"/></linearGradient><linearGradient id="c" x1="0.478" y1="-0.35" x2="-0.882" y2="1.434" gradientUnits="objectBoundingBox"><stop offset="0" stop-color="#ff3a44"/><stop offset="1" stop-color="#c31162"/></linearGradient><linearGradient id="d" x1="-0.57" y1="0.222" x2="0.038" y2="1.019" gradientUnits="objectBoundingBox"><stop offset="0" stop-color="#32a071"/><stop offset="0.07" stop-color="#2da771"/><stop offset="0.48" stop-color="#15cf74"/><stop offset="0.8" stop-color="#06e775"/><stop offset="1" stop-color="#00f076"/></linearGradient></defs><g transform="translate(-158.312 -0.312)"><g transform="translate(158.109 0.148)"><g transform="translate(0 0)"><g transform="translate(37.515 6.144)"><path class="a" d="M259.519,44.64a2.416,2.416,0,0,1-.679,1.8,2.673,2.673,0,0,1-2.009.8,2.777,2.777,0,0,1-2.009-.812,2.853,2.853,0,0,1,0-4.017,2.762,2.762,0,0,1,2.009-.812,2.88,2.88,0,0,1,1.122.222,2.216,2.216,0,0,1,.857.606l-.473.473a1.85,1.85,0,0,0-1.492-.635,2.1,2.1,0,0,0-1.492.591,2.267,2.267,0,0,0,0,3.116,2.112,2.112,0,0,0,1.492.591,2.083,2.083,0,0,0,1.521-.606,1.684,1.684,0,0,0,.458-1.093h-1.979v-.62h2.644A1.818,1.818,0,0,1,259.519,44.64Z" transform="translate(-253.994 -41.597)"/></g><g transform="translate(44.044 6.277)"><path class="a" d="M301.376,43.165h-2.467v1.7h2.23v.65h-2.23v1.713h2.481v.665H298.2V42.5h3.176Z" transform="translate(-298.2 -42.5)"/></g><g transform="translate(47.958 6.277)"><path class="a" d="M326.916,47.876h-.694V43.165H324.7V42.5h3.737v.665h-1.521Z" transform="translate(-324.7 -42.5)"/></g><g transform="translate(54.413 6.277)"><path class="a" d="M368.4,47.876V42.5h.694v5.376Z" transform="translate(-368.4 -42.5)"/></g><g transform="translate(55.993 6.277)"><path class="a" d="M381.316,47.876h-.694V43.165H379.1V42.5h3.752v.665h-1.536Z" transform="translate(-379.1 -42.5)"/></g><g transform="translate(62.033 6.167)"><path class="a" d="M424.781,46.56a2.851,2.851,0,0,1-3.988,0,2.891,2.891,0,0,1,0-3.988,2.836,2.836,0,0,1,3.988,0,2.853,2.853,0,0,1,0,3.988ZM421.31,46.1a.891.891,0,1,0-.015,0Z" transform="translate(-419.995 -41.752)"/></g><g transform="translate(68.607 6.277)"><path class="a" d="M464.5,47.876V42.5h.857L468,46.68h.029L468,45.646V42.5h.694v5.376h-.724l-2.777-4.387h-.03l.03,1.034v3.353Z" transform="translate(-464.5 -42.5)"/></g><path class="b" d="M276.792,107.72a3.811,3.811,0,1,0,3.885,3.825A3.786,3.786,0,0,0,276.792,107.72Zm0,6.13a2.323,2.323,0,1,1,2.186-2.319A2.22,2.22,0,0,1,276.792,113.85Zm-8.448-6.13a3.811,3.811,0,1,0,3.87,3.811A3.778,3.778,0,0,0,268.344,107.72Zm0,6.13a2.323,2.323,0,0,1,0-4.638,2.324,2.324,0,0,1,0,4.638Zm-10.058-4.963v1.625H262.2a3.48,3.48,0,0,1-.886,2.038,4.183,4.183,0,0,1-3.028,1.182,4.313,4.313,0,0,1,0-8.611,4.18,4.18,0,0,1,2.954,1.152l1.152-1.137a5.746,5.746,0,0,0-4.106-1.639,5.925,5.925,0,1,0,0,11.846,5.283,5.283,0,0,0,5.6-5.45,5.364,5.364,0,0,0-.089-1.019Zm41.12,1.255a3.574,3.574,0,0,0-3.308-2.422,3.629,3.629,0,0,0-3.633,3.811,3.752,3.752,0,0,0,3.825,3.811,3.84,3.84,0,0,0,3.22-1.684l-1.315-.871a2.209,2.209,0,0,1-1.905,1.049,1.96,1.96,0,0,1-1.876-1.152l5.169-2.112Zm-5.258,1.27a2.112,2.112,0,0,1,2.023-2.23A1.5,1.5,0,0,1,297.6,110Zm-4.195,3.707h1.7V103.91h-1.7Zm-2.777-6.543h-.059a2.688,2.688,0,0,0-2.023-.857,3.812,3.812,0,0,0,0,7.621,2.644,2.644,0,0,0,2.023-.871h.059v.546a1.965,1.965,0,0,1-2.068,2.245,2.151,2.151,0,0,1-1.95-1.359l-1.477.606a3.678,3.678,0,0,0,3.427,2.275c1.994,0,3.663-1.152,3.663-3.973v-6.853h-1.6Zm-1.935,5.273a2.318,2.318,0,0,1,0-4.623,2.325,2.325,0,0,1-.015,4.623Zm22.125-9.94H303.3v11.21H305v-4.239h2.363a3.493,3.493,0,1,0,0-6.971Zm.044,5.406h-2.422v-3.84h2.422a1.92,1.92,0,1,1,0,3.84Zm10.457-1.61a3.165,3.165,0,0,0-3.013,1.713l1.507.62a1.615,1.615,0,0,1,1.551-.827,1.633,1.633,0,0,1,1.787,1.447v.118a3.752,3.752,0,0,0-1.772-.428c-1.625,0-3.264.886-3.264,2.526a2.528,2.528,0,0,0,2.821,2.467,2.378,2.378,0,0,0,2.156-1.093h.059v.871h1.639v-4.313C321.324,108.813,319.817,107.706,317.867,107.706Zm-.207,6.144c-.546,0-1.329-.266-1.329-.945s.96-1.2,1.8-1.2a3.072,3.072,0,0,1,1.551.384,2.053,2.053,0,0,1-2.023,1.758Zm9.615-5.893-1.95,4.859h-.059l-2.009-4.859h-1.817l3.028,6.794-1.728,3.781h1.772l4.652-10.575Zm-15.257,7.163h1.7V103.91h-1.7Z" transform="translate(-214.95 -88.209)"/><g transform="translate(9.039 6.706)"><path class="c" d="M61.628,45.459a1.787,1.787,0,0,0-.428,1.255V66.565a1.675,1.675,0,0,0,.428,1.255l.059.059L72.942,56.773v-.266L61.7,45.4Z" transform="translate(-61.2 -45.4)"/></g><g transform="translate(20.781 14.105)"><path class="d" d="M144.452,103.18,140.7,99.473v-.266l3.752-3.707.089.044,4.446,2.5c1.27.709,1.27,1.876,0,2.585l-4.446,2.5Z" transform="translate(-140.7 -95.5)"/></g><g transform="translate(9.468 17.931)"><path class="e" d="M79.254,125.2l-3.84-3.8L64.1,132.6a1.5,1.5,0,0,0,1.891.059l13.263-7.444" transform="translate(-64.1 -121.4)"/></g><g transform="translate(9.468 6.407)"><path class="f" d="M79.254,51.122,65.991,43.678a1.5,1.5,0,0,0-1.891.059L75.414,54.918Z" transform="translate(-64.1 -43.38)"/></g></g></g><path class="g" d="M126.422,36.724a3.486,3.486,0,0,1-3.486,3.486H8.986A3.486,3.486,0,0,1,5.5,36.724V8.986A3.486,3.486,0,0,1,8.986,5.5h113.95a3.486,3.486,0,0,1,3.486,3.486V36.724Z" transform="translate(153.312 -4.688)"/></g></svg>